<?xml version="1.0" encoding="UTF-8"?>
<svg xmlns="http://www.w3.org/2000/svg" width="95" height="42" viewBox="0 0 95 42" fill="none">
  <g clip-path="url(#clip0_711_183)">
    <path d="M49.3381 4.04986C48.2516 2.50338 46.4616 1.3489 44.0192 0.619765C41.292 -0.195616 38.938 -0.207377 37.0242 0.582524C35.079 1.38419 33.7252 2.93655 33.0002 5.19649L32.8567 5.64142L39.3114 7.56815L39.4509 7.14282C39.6709 6.47444 40.003 6.03343 40.4667 5.79038C40.9304 5.54734 41.4884 5.5297 42.1742 5.73354C42.8108 5.92367 43.2608 6.251 43.5476 6.73513C43.8286 7.2075 43.8797 7.71711 43.7048 8.29729C43.4808 9.04407 43.0918 9.52428 42.5161 9.76145C41.9148 10.0104 41.1269 9.99273 40.1759 9.70853L39.4037 9.47724L38.0322 14.05L38.4723 14.1814C38.5647 14.2088 38.6649 14.2362 38.773 14.2617C38.8693 14.2852 39.0068 14.3244 39.1856 14.3774C40.2427 14.6929 40.952 15.1379 41.292 15.6965C41.6221 16.2394 41.6496 16.9842 41.3705 17.9074C41.123 18.7346 40.7339 19.2755 40.1798 19.5617C39.6277 19.8479 38.9203 19.8636 38.0794 19.6127C37.2777 19.3735 36.7609 18.9933 36.5016 18.4504C36.2363 17.8996 36.2383 17.1704 36.5055 16.2825L36.7511 15.4652L30.0253 13.4561L29.8269 14.1167C29.0527 16.6961 29.2688 19.0247 30.4714 21.0396C31.664 23.0428 33.6839 24.4795 36.4741 25.3125C37.5685 25.6398 38.6236 25.8182 39.6316 25.8476C41.0719 25.8888 42.4178 25.6261 43.6557 25.0616C45.7817 24.0894 47.218 22.4038 47.9234 20.0517C48.4146 18.417 48.3891 16.9176 47.8507 15.5946C47.4695 14.6577 46.8506 13.8599 46.0096 13.2111C46.8172 13.0504 47.5324 12.7446 48.1435 12.3017C49.0866 11.6176 49.7547 10.6337 50.1319 9.37728C50.7194 7.42115 50.4522 5.62966 49.3421 4.0479L49.3381 4.04986Z" fill="#EAC62B"></path>
    <path d="M32.4146 29.2444C32.4146 28.921 32.5345 28.6408 32.7742 28.4055C33.0139 28.1703 33.2988 28.0527 33.6289 28.0527C33.959 28.0527 34.2557 28.1664 34.4836 28.3938C34.7116 28.6212 34.8255 28.9054 34.8255 29.2464C34.8255 29.5875 34.7096 29.8756 34.4797 30.1088C34.2498 30.3421 33.9649 30.4577 33.6289 30.4577C33.2929 30.4577 33.0139 30.3382 32.7742 30.099C32.5345 29.8599 32.4146 29.5757 32.4146 29.2464V29.2444Z" fill="#E16F23"></path>
    <path d="M34.5957 31.9629H32.6721V41.8533H34.5957V31.9629Z" fill="#231815"></path>
    <path d="M37.3583 41.8534V31.9629H39.166V33.333C39.5491 32.7548 40.0011 32.3334 40.5217 32.0688C41.0424 31.8042 41.6732 31.6709 42.4179 31.6709C43.0447 31.6709 43.5771 31.7689 44.0173 31.9669C44.4574 32.1648 44.8013 32.4569 45.0488 32.8469C45.1962 33.0763 45.3023 33.3448 45.3671 33.6505C45.432 33.9563 45.4654 34.4934 45.4654 35.2598V41.8514H43.5241V36.0379C43.5241 34.9363 43.3905 34.2033 43.1213 33.8407C42.8521 33.4781 42.3746 33.2977 41.6908 33.2977C41.2409 33.2977 40.842 33.3801 40.4903 33.5447C40.1386 33.7094 39.8635 33.9426 39.6611 34.2425C39.5197 34.4424 39.4194 34.7011 39.3644 35.0167C39.3094 35.3323 39.2799 35.834 39.2799 36.524V41.8514H37.3563L37.3583 41.8534Z" fill="#231815"></path>
    <path d="M47.051 39.5599L48.7899 38.6151C48.9196 39.0718 49.1574 39.4187 49.5051 39.6559C49.8529 39.8931 50.3009 40.0126 50.8491 40.0126C51.3187 40.0126 51.6881 39.9048 51.9553 39.6892C52.2226 39.4736 52.3562 39.1796 52.3562 38.8072C52.3562 38.3113 51.8787 37.8879 50.9257 37.5351C50.6035 37.4195 50.3559 37.3234 50.1811 37.245C49.2025 36.8393 48.5168 36.4297 48.1278 36.0102C47.7387 35.5908 47.5422 35.0851 47.5422 34.4873C47.5422 33.6719 47.8625 33.0094 48.503 32.5017C49.1436 31.9941 49.9924 31.7393 51.0495 31.7393C51.7589 31.7393 52.366 31.8686 52.871 32.1293C53.376 32.39 53.7453 32.7604 53.9772 33.2426L52.4878 34.2638C52.3778 33.9737 52.1872 33.7444 51.9121 33.5739C51.639 33.4033 51.3207 33.3191 50.9592 33.3191C50.5603 33.3191 50.24 33.4131 49.9983 33.6033C49.7566 33.7934 49.6368 34.0462 49.6368 34.3598C49.6368 34.8361 50.1771 35.2693 51.2598 35.6613C51.6017 35.7828 51.865 35.8828 52.0516 35.9593C52.8965 36.2944 53.4997 36.6708 53.8632 37.0922C54.2267 37.5136 54.4095 38.0389 54.4095 38.668C54.4095 39.5814 54.0774 40.2968 53.4133 40.8123C52.7492 41.3298 51.8355 41.5885 50.6683 41.5885C49.7724 41.5885 49.0277 41.4219 48.4362 41.0867C47.8428 40.7516 47.3791 40.242 47.0451 39.554L47.051 39.5599Z" fill="#231815"></path>
    <path d="M57.0837 41.8528V33.6421H55.612V31.9624H57.0837V28.7891H59.0073V31.9624H60.479V33.6421H59.0073V41.8528H57.0837Z" fill="#231815"></path>
    <path d="M62.5461 29.2444C62.5461 28.921 62.6659 28.6408 62.9057 28.4055C63.1454 28.1703 63.4303 28.0527 63.7604 28.0527C64.0905 28.0527 64.3872 28.1664 64.6151 28.3938C64.843 28.6212 64.957 28.9054 64.957 29.2464C64.957 29.5875 64.8411 29.8756 64.6112 30.1088C64.3813 30.3421 64.0964 30.4577 63.7604 30.4577C63.4244 30.4577 63.1454 30.3382 62.9057 30.099C62.6659 29.8599 62.5461 29.5757 62.5461 29.2464V29.2444Z" fill="#EAC62B"></path>
    <path d="M64.4441 31.9629H62.5205V41.8533H64.4441V31.9629Z" fill="#231815"></path>
    <path d="M68.8514 36.7214V33.6421H67.3797V31.9624H68.8514V28.7891H70.775V31.9624H72.2467V33.6421H70.775V36.7214H68.8514Z" fill="#231815"></path>
    <path d="M75.3748 36.7214V33.6421H73.9031V31.9624H75.3748V28.7891H77.2984V31.9624H78.7701V33.6421H77.2984V36.7214H75.3748Z" fill="#231815"></path>
    <path d="M90.8915 37.1135H83.814C83.8631 37.9386 84.1087 38.5835 84.5508 39.0461C84.9929 39.5086 85.5804 39.7399 86.3153 39.7399C86.9696 39.7399 87.5138 39.6027 87.95 39.3303C88.3862 39.0578 88.7655 38.6168 89.0897 38.0072L90.7991 38.9579C90.302 39.8458 89.685 40.5083 88.9502 40.9414C88.2153 41.3766 87.3527 41.5941 86.3644 41.5941C84.9457 41.5941 83.8159 41.1629 82.975 40.2985C82.134 39.4361 81.7135 38.2836 81.7135 36.843C81.7135 35.4023 82.1477 34.3204 83.0162 33.4286C83.8847 32.5367 85.0007 32.0918 86.3644 32.0918C87.728 32.0918 88.901 32.4995 89.6988 33.3129C90.4965 34.1263 90.8934 35.2671 90.8934 36.7312V37.1135H90.8915ZM88.791 35.7532C88.7104 35.1201 88.4668 34.6359 88.062 34.3047C87.6573 33.9734 87.1032 33.8068 86.3997 33.8068C85.7336 33.8068 85.1972 33.9676 84.7944 34.291C84.3897 34.6144 84.1067 35.1024 83.9456 35.7532H88.793H88.791Z" fill="#231815"></path>
    <path d="M76.5164 41.9998H69.8613C67.7353 41.9998 66.0043 40.273 66.0043 38.1522V36.9448H67.8198V38.1522C67.8198 39.2753 68.7355 40.1887 69.8613 40.1887H76.5164C77.6423 40.1887 78.5579 39.2753 78.5579 38.1522V36.9448H80.3734V38.1522C80.3734 40.273 78.6443 41.9998 76.5164 41.9998Z" fill="#D80C18"></path>
    <path d="M30.438 40.5966L16.1101 23.6127C19.1026 23.1717 21.431 22.0937 23.0382 20.4061C24.787 18.5715 25.6731 16.0097 25.6731 12.7952C25.6731 10.9684 25.29 9.26122 24.5335 7.72062C23.7751 6.1761 22.6826 4.89814 21.2855 3.92008C20.1184 3.11253 18.6958 2.52648 17.0591 2.17955C15.4459 1.8385 13.1588 1.66602 10.2606 1.66602H0.503009C0.225961 1.66602 0 1.89142 0 2.16583V40.92C0 41.1963 0.225961 41.4198 0.503009 41.4198H6.94389C7.22094 41.4198 7.4469 41.1944 7.4469 40.92V24.0067H7.6316L21.9123 41.2395C22.0086 41.3551 22.1501 41.4218 22.2994 41.4218H30.0528C30.2474 41.4218 30.4262 41.3081 30.5087 41.1317C30.5912 40.9553 30.5618 40.7475 30.438 40.5985V40.5966ZM17.6034 13.3538C17.6034 15.2041 17.065 16.4448 15.9607 17.1485C14.8093 17.8815 12.3807 18.252 8.74765 18.252H7.89096V7.9225H8.74765C12.2019 7.9225 14.5814 8.34195 15.8193 9.16714C17.0198 9.9688 17.6034 11.3389 17.6034 13.3538Z" fill="#E16F23"></path>
    <path d="M58.8108 14.3985C58.9523 14.3887 60.925 14.1574 62.5755 13.8948C62.7013 13.8399 62.7877 13.7556 62.8054 13.6713C62.8526 13.4518 62.6679 13.2166 62.4262 13.0069H62.4301C62.1767 12.7972 61.992 12.5032 61.9251 12.1562C61.7719 11.3702 62.2906 10.6058 63.0805 10.4529C63.8704 10.3001 64.6249 10.8136 64.7762 11.6015C64.843 11.9445 64.8194 12.266 64.6269 12.562C64.5561 12.8383 64.3557 13.1539 64.4815 13.3401C64.5306 13.4126 64.6524 13.4734 64.7801 13.4655H64.784C66.4129 13.0931 68.4446 12.5463 68.5802 12.5012C68.5723 12.366 68.3287 10.3001 68.0772 8.71633C68.0163 8.60853 67.9455 8.52425 67.863 8.50857C67.6508 8.46349 67.4229 8.63989 67.2225 8.87314V8.86922C67.0201 9.11422 66.7352 9.29063 66.4011 9.35531C65.6427 9.50231 64.9059 9.00446 64.7585 8.24592C64.6111 7.48738 65.1083 6.76412 65.8667 6.61712C66.1968 6.55244 66.5072 6.57596 66.7941 6.7602H66.7961C67.0613 6.8288 67.3639 7.02089 67.5447 6.89936C67.6154 6.85232 67.6488 6.73668 67.6646 6.6132C67.305 5.04908 66.7509 3.02238 66.7096 2.89302L62.6129 3.7084C62.605 3.51435 62.7484 3.25759 62.8093 3.02826V3.02434C63.0078 2.71465 63.0353 2.37948 62.9685 2.02471C62.8506 1.39162 62.3712 0.882004 61.7326 0.787922C60.6047 0.623278 59.7638 1.59154 59.9583 2.59509C60.029 2.96162 60.2236 3.27131 60.4908 3.48887H60.4869C60.6873 3.66528 60.8484 3.8554 60.8838 4.04161L56.9402 4.78447L56.9442 4.80603C56.9442 4.83543 58.4768 12.7521 58.8088 14.3946L58.8108 14.3985Z" fill="#E16F23"></path>
    <path d="M58.8108 14.3985C58.9523 14.3887 60.925 14.1574 62.5755 13.8948C62.7013 13.8399 62.7877 13.7556 62.8054 13.6713C62.8526 13.4518 62.6679 13.2166 62.4262 13.0069H62.4301C62.1767 12.7972 61.992 12.5032 61.9251 12.1562C61.7719 11.3702 62.2906 10.6058 63.0805 10.4529C63.8704 10.3001 64.6249 10.8136 64.7762 11.6015C64.843 11.9445 64.8194 12.266 64.6269 12.562C64.5561 12.8383 64.3557 13.1539 64.4815 13.3401C64.5306 13.4126 64.6524 13.4734 64.7801 13.4655H64.784C66.4129 13.0931 68.4446 12.5463 68.5802 12.5012C68.5723 12.366 68.3287 10.3001 68.0772 8.71633C68.0163 8.60853 67.9455 8.52425 67.863 8.50857C67.6508 8.46349 67.4229 8.63989 67.2225 8.87314V8.86922C67.0201 9.11422 66.7352 9.29063 66.4011 9.35531C65.6427 9.50231 64.9059 9.00446 64.7585 8.24592C64.6111 7.48738 65.1083 6.76412 65.8667 6.61712C66.1968 6.55244 66.5073 6.57596 66.7941 6.7602H66.7961C67.0613 6.8288 67.3639 7.02089 67.5447 6.89936C67.6154 6.85232 67.6488 6.73668 67.6646 6.6132C67.305 5.04908 66.7509 3.02238 66.7096 2.89302L62.6129 3.7084C62.605 3.51435 62.7484 3.25759 62.8093 3.02826V3.02434C63.0078 2.71465 63.0353 2.37948 62.9685 2.02471C62.8506 1.39162 62.3712 0.882004 61.7326 0.787922C60.6047 0.623278 59.7638 1.59154 59.9583 2.59509C60.029 2.96162 60.2236 3.27131 60.4908 3.48887H60.4869C60.6873 3.66528 60.8484 3.8554 60.8838 4.04161L56.9402 4.78447L56.9442 4.80603C56.9442 4.83543 58.4768 12.7521 58.8088 14.3946L58.8108 14.3985Z" fill="#E16F23"></path>
    <path d="M58.8108 14.3985C58.9523 14.3887 60.925 14.1574 62.5755 13.8948C62.7013 13.8399 62.7877 13.7556 62.8054 13.6713C62.8526 13.4518 62.6679 13.2166 62.4262 13.0069H62.4301C62.1767 12.7972 61.992 12.5032 61.9251 12.1562C61.7719 11.3702 62.2906 10.6058 63.0805 10.4529C63.8704 10.3001 64.6249 10.8136 64.7762 11.6015C64.843 11.9445 64.8194 12.266 64.6269 12.562C64.5561 12.8383 64.3557 13.1539 64.4815 13.3401C64.5306 13.4126 64.6524 13.4734 64.7801 13.4655H64.784C66.4129 13.0931 68.4446 12.5463 68.5802 12.5012C68.5723 12.366 68.3287 10.3001 68.0772 8.71633C68.0163 8.60853 67.9455 8.52425 67.863 8.50857C67.6508 8.46349 67.4229 8.63989 67.2225 8.87314V8.86922C67.0201 9.11422 66.7352 9.29063 66.4011 9.35531C65.6427 9.50231 64.9059 9.00446 64.7585 8.24592C64.6111 7.48738 65.1083 6.76412 65.8667 6.61712C66.1968 6.55244 66.5073 6.57596 66.7941 6.7602H66.7961C67.0613 6.8288 67.3639 7.02089 67.5447 6.89936C67.6154 6.85232 67.6488 6.73668 67.6646 6.6132C67.305 5.04908 66.7509 3.02238 66.7096 2.89302L62.6129 3.7084C62.605 3.51435 62.7484 3.25759 62.8093 3.02826V3.02434C63.0078 2.71465 63.0353 2.37948 62.9685 2.02471C62.8506 1.39162 62.3712 0.882004 61.7326 0.787922C60.6047 0.623278 59.7638 1.59154 59.9583 2.59509C60.029 2.96162 60.2236 3.27131 60.4908 3.48887H60.4869C60.6873 3.66528 60.8484 3.8554 60.8838 4.04161L56.9402 4.78447L56.9442 4.80603C56.9442 4.83543 58.4768 12.7521 58.8088 14.3946L58.8108 14.3985Z" fill="#E16F23"></path>
    <path d="M70.9498 13.4377C71.0638 13.2828 71.9676 12.05 72.9678 10.3604C72.9717 10.2702 72.9501 10.2016 72.9069 10.1487C72.7457 9.94488 72.3763 9.97428 71.9834 10.0801H71.9794C71.6533 10.0605 71.2465 10.0566 70.8929 9.86256C70.0814 9.41958 69.7945 8.38468 70.2386 7.57322C70.6826 6.76371 71.7103 6.4501 72.5237 6.89308C72.8813 7.08908 73.1407 7.39289 73.2802 7.74374L73.2841 7.73982C73.4295 8.07695 73.6201 8.3592 73.8795 8.38468C73.9463 8.39056 74.017 8.36312 74.0897 8.31215C74.9955 6.52655 75.5595 5.07023 75.6164 4.92126C75.7402 5.01339 76.9152 5.87189 78.5441 6.84212C78.717 6.88328 78.886 6.89112 78.9783 6.8186C79.1827 6.65787 79.1748 6.29722 79.0687 5.90521V5.90129C78.9646 5.50732 79.0727 5.15843 79.2652 4.80562C79.7093 3.99612 80.7369 3.70407 81.5484 4.14704C82.3599 4.59002 82.6645 5.6112 82.2204 6.4207C82.0239 6.77743 81.7194 7.03616 81.3676 7.17532L81.3716 7.17924C81.0336 7.32429 80.7487 7.51833 80.7232 7.7751C80.7114 7.89074 80.8077 8.02207 80.9354 8.14555C82.7195 9.03541 84.1362 9.56855 84.1637 9.57835C84.0772 9.69595 83.2028 10.8975 82.2165 12.5615C82.1909 12.7066 82.1988 12.832 82.2617 12.9104C82.4228 13.1143 82.7922 13.0908 83.1871 12.9849H83.1911C83.5172 13.0045 83.9279 13.0045 84.2816 13.1986C85.0931 13.6415 85.376 14.6843 84.9319 15.4938C84.4879 16.3033 83.4661 16.6051 82.6527 16.1622C82.2951 15.9662 82.0357 15.6624 81.8962 15.3115L81.8903 15.3154C81.7449 14.9783 81.5504 14.6941 81.291 14.6686C81.1908 14.6588 81.0768 14.7274 80.9688 14.8274C80.0551 16.6267 79.4833 18.0556 79.4676 18.0987L79.4499 18.0869C79.2102 17.9948 77.7896 17.446 76.0625 16.5738C76.0074 16.4973 75.976 16.4209 75.9819 16.3523C76.0074 16.0936 76.2825 15.8917 76.6716 15.7702V15.7662C77.0626 15.6428 77.3278 15.3781 77.5204 15.0253C77.9645 14.2158 77.6697 13.2025 76.8563 12.7595C76.0448 12.3165 75.027 12.6164 74.5829 13.4259C74.3864 13.7827 74.3373 14.1806 74.41 14.551H74.4061C74.467 14.9136 74.4591 15.2547 74.2548 15.4154C74.2037 15.4565 74.1271 15.4703 74.0406 15.4683C72.3842 14.4942 71.1679 13.6121 70.9636 13.4632C70.9872 13.473 71.0127 13.4828 71.0127 13.4828L71.0186 13.471L70.9459 13.4357L70.9498 13.4377Z" fill="#EAC62B"></path>
    <path d="M84.1757 9.57031L84.1676 9.58045L84.1737 9.57031H84.1757Z" fill="#EAC62B"></path>
    <path d="M95 24.0497C94.945 23.9204 94.0765 22.1465 93.2867 20.6843C93.1943 20.5843 93.0862 20.5314 92.9998 20.5432C92.7778 20.5726 92.6147 20.8215 92.4987 21.1175L92.4948 21.1136C92.3828 21.4193 92.1667 21.6898 91.8621 21.8662C91.1705 22.268 90.2804 22.0328 89.8776 21.3429C89.4748 20.6529 89.7106 19.7768 90.4022 19.373C90.7028 19.1986 91.0153 19.1143 91.3571 19.1966H91.3591C91.6401 19.1711 92.0036 19.2554 92.1372 19.0771C92.1903 19.0065 92.206 18.8732 92.1568 18.7576V18.7537C91.2668 17.3483 90.0839 15.6215 89.9974 15.5098C89.8717 15.5627 88.0051 16.4702 86.5943 17.2287C86.5117 17.3209 86.4567 17.4149 86.4685 17.4973C86.496 17.7109 86.7377 17.8657 87.0226 17.9794L87.0187 17.9834C87.3154 18.0912 87.5747 18.2989 87.7457 18.591C88.1347 19.2554 87.9068 20.11 87.2407 20.4961C86.5746 20.8823 85.7297 20.6569 85.3407 19.9924C85.1717 19.7043 85.0911 19.4044 85.1697 19.0751C85.1481 18.8027 85.2287 18.4538 85.0558 18.3244C84.987 18.2734 84.8671 18.2813 84.7473 18.3048C83.3915 19.1574 81.6821 20.3335 81.574 20.4158C81.6663 20.5353 82.5447 21.6683 83.6135 23.3598C83.645 23.5087 83.6509 23.6577 83.588 23.74C83.4269 23.9556 82.9926 23.8537 82.6567 23.8811H82.6527C82.3541 23.8106 82.075 23.8459 81.8059 23.9498C80.8784 24.3124 80.3892 25.3688 80.7959 26.2763C81.2243 27.2309 82.3757 27.5856 83.2579 27.0721C83.6214 26.8604 83.8827 26.539 84.0144 26.1725L84.0203 26.1764C84.1598 25.8236 84.3543 25.5237 84.6196 25.4904C84.7217 25.4766 84.8416 25.5452 84.9556 25.6452C85.9518 27.4778 86.5687 28.9028 86.5864 28.9479C86.608 28.9302 93.546 24.8769 94.9981 24.0478L95 24.0497Z" fill="#E16F23"></path>
  </g>
  <defs>
    <clipPath id="clip0_711_183">
      <rect width="95" height="42" fill="white"></rect>
    </clipPath>
  </defs>
</svg>
