<?xml version="1.0" encoding="utf-8"?>
<!-- Generator: Adobe Illustrator 17.1.0, SVG Export Plug-In . SVG Version: 6.00 Build 0)  -->
<!DOCTYPE svg PUBLIC "-//W3C//DTD SVG 1.1//EN" "http://www.w3.org/Graphics/SVG/1.1/DTD/svg11.dtd">
<svg version="1.1" id="レイヤー_1" xmlns="http://www.w3.org/2000/svg" xmlns:xlink="http://www.w3.org/1999/xlink" x="0px"
	 y="0px" viewBox="0 159.8 960 240.3" enable-background="new 0 159.8 960 240.3" xml:space="preserve">
<g>
	<path fill="#111111" d="M960,302.7c0-50.4-38.2-91.8-87.2-96.9v20.7c37.6,5,66.7,37.2,66.7,76.3c0,39-29,71.2-66.7,76.2v20.7
		c27.1-2.8,50.8-16.8,66.7-37.1v37.6H960V302.7L960,302.7z"/>
	<path fill="#111111" d="M97.5,225.7c28.5,0,53.3,15.5,66.6,38.5l17.8-10.3c-16.9-29.1-48.4-48.7-84.4-48.7
		C43.6,205.2,0,248.8,0,302.7c0,53.8,43.6,97.5,97.5,97.5c36.1,0,67.6-19.6,84.4-48.7l-17.8-10.3c-13.3,23-38.2,38.5-66.6,38.5
		c-42.5,0-77-34.5-77-76.9C20.5,260.2,55,225.7,97.5,225.7z"/>
	<rect x="436.9" y="292.4" fill="#111111" width="72.1" height="20.5"/>
	<path fill="#111111" d="M209.6,302.7c0,50.4,38.2,91.8,87.2,96.9v-20.7c-37.6-5-66.7-37.2-66.7-76.2c0-39,29-71.2,66.7-76.3v-20.7
		C247.8,210.9,209.6,252.3,209.6,302.7z"/>
	<path fill="#111111" d="M317.4,205.7v20.7c37.6,5,66.7,37.2,66.7,76.3c0,39-29,71.2-66.7,76.2v20.7c49-5.1,87.2-46.6,87.2-96.9
		C404.6,252.3,366.4,210.9,317.4,205.7z"/>
	<path fill="#111111" d="M648.9,205.7v20.7c37.7,5,66.7,37.2,66.7,76.3c0,39-29,71.2-66.7,76.2v20.7c49-5.1,87.2-46.6,87.2-96.9
		C736.2,252.3,698,210.9,648.9,205.7z"/>
	<path fill="#111111" d="M561.7,242.9v-83h-20.5v142.8c0,50.4,38.2,91.8,87.2,96.9v-20.7c-37.6-5-66.7-37.2-66.7-76.2
		c0-39,29-71.2,66.7-76.3v-20.7C601.4,208.6,577.6,222.5,561.7,242.9z"/>
	<path fill="#111111" d="M765,302.7c0,50.4,38.2,91.8,87.2,96.9v-20.7c-37.6-5-66.7-37.2-66.7-76.2c0-39,29-71.2,66.7-76.3v-20.7
		C803.3,210.9,765,252.3,765,302.7z"/>
</g>
</svg>
