<svg width="499" height="179" viewBox="0 0 499 179" fill="none" xmlns="http://www.w3.org/2000/svg">
<g clip-path="url(#clip0_1351_503)">
<path d="M132.458 159.027H118.588L116.205 165.792H110.536L122.408 132.61H128.695L140.567 165.792H134.847L132.458 159.027ZM130.937 154.595L125.551 139.193L120.121 154.595H130.937Z" fill="black"/>
<path d="M152.042 132.668V165.798H146.611V132.668H152.042Z" fill="black"/>
<path d="M166.11 159.266L160.338 172.42H156.809L160.197 159.266H166.11Z" fill="black"/>
<path d="M202.077 140.386C203.712 141.243 204.994 142.52 205.914 144.199C206.833 145.885 207.298 147.916 207.298 150.3V165.792H201.913V151.111C201.913 148.756 201.323 146.957 200.142 145.698C198.968 144.443 197.362 143.819 195.33 143.819C193.298 143.819 191.681 144.443 190.489 145.698C189.292 146.957 188.702 148.756 188.702 151.111V165.792H183.265V139.529H188.702V142.525C189.587 141.453 190.728 140.607 192.112 140.006C193.497 139.404 194.967 139.098 196.522 139.098C198.582 139.098 200.432 139.529 202.077 140.386Z" fill="black"/>
<path d="M213.609 145.538C214.704 143.506 216.203 141.923 218.092 140.794C219.982 139.67 222.07 139.103 224.357 139.103C226.423 139.103 228.228 139.505 229.766 140.317C231.303 141.134 232.535 142.139 233.46 143.347V139.534H238.942V165.797H233.46V161.893C232.535 163.13 231.281 164.163 229.692 164.991C228.103 165.82 226.293 166.229 224.261 166.229C222.002 166.229 219.937 165.65 218.064 164.486C216.185 163.329 214.699 161.711 213.603 159.629C212.508 157.552 211.963 155.191 211.963 152.552C211.963 149.913 212.508 147.575 213.603 145.544L213.609 145.538ZM232.348 147.916C231.599 146.588 230.622 145.566 229.414 144.868C228.205 144.17 226.905 143.818 225.504 143.818C224.102 143.818 222.802 144.159 221.599 144.846C220.391 145.527 219.415 146.531 218.665 147.842C217.916 149.164 217.547 150.73 217.547 152.541C217.547 154.351 217.916 155.94 218.665 157.308C219.415 158.675 220.402 159.714 221.622 160.429C222.848 161.144 224.142 161.501 225.509 161.501C226.911 161.501 228.216 161.15 229.419 160.452C230.622 159.754 231.604 158.726 232.353 157.376C233.097 156.025 233.471 154.442 233.471 152.632C233.471 150.821 233.097 149.244 232.353 147.91L232.348 147.916Z" fill="black"/>
<path d="M252.777 143.96V158.499C252.777 159.487 253.004 160.19 253.47 160.622C253.929 161.047 254.718 161.263 255.825 161.263H259.162V165.792H254.871C252.425 165.792 250.547 165.218 249.247 164.072C247.948 162.931 247.295 161.07 247.295 158.499V143.96H244.197V139.534H247.295V133.002H252.777V139.534H259.162V143.96H252.777Z" fill="black"/>
<path d="M288.132 139.534V165.797H282.695V162.699C281.844 163.777 280.72 164.628 279.335 165.247C277.956 165.866 276.481 166.178 274.926 166.178C272.866 166.178 271.016 165.746 269.37 164.889C267.736 164.033 266.448 162.756 265.511 161.07C264.569 159.39 264.104 157.359 264.104 154.97V139.528H269.489V154.158C269.489 156.513 270.08 158.312 271.254 159.566C272.429 160.826 274.035 161.45 276.072 161.45C278.11 161.45 279.721 160.826 280.913 159.566C282.105 158.312 282.695 156.513 282.695 154.158V139.528L288.132 139.534Z" fill="black"/>
<path d="M304.237 140.22C305.554 139.477 307.12 139.103 308.93 139.103V144.726H307.551C305.423 144.726 303.812 145.271 302.711 146.349C301.61 147.428 301.065 149.306 301.065 151.973V165.797H295.628V139.534H301.065V143.347C301.859 142.014 302.915 140.97 304.237 140.22Z" fill="black"/>
<path d="M312.908 145.538C314.004 143.506 315.502 141.923 317.392 140.794C319.281 139.67 321.37 139.103 323.657 139.103C325.722 139.103 327.527 139.505 329.065 140.317C330.603 141.134 331.834 142.139 332.759 143.347V139.534H338.241V165.797H332.759V161.893C331.834 163.13 330.58 164.163 328.991 164.991C327.402 165.82 325.592 166.229 323.56 166.229C321.302 166.229 319.236 165.65 317.363 164.486C315.485 163.329 313.998 161.711 312.903 159.629C311.807 157.552 311.263 155.191 311.263 152.552C311.263 149.913 311.807 147.575 312.903 145.544L312.908 145.538ZM331.647 147.916C330.898 146.588 329.922 145.566 328.713 144.868C327.504 144.17 326.205 143.818 324.803 143.818C323.401 143.818 322.102 144.159 320.899 144.846C319.69 145.527 318.714 146.531 317.965 147.842C317.216 149.164 316.847 150.73 316.847 152.541C316.847 154.351 317.216 155.94 317.965 157.308C318.714 158.675 319.701 159.714 320.921 160.429C322.147 161.144 323.441 161.501 324.809 161.501C326.21 161.501 327.516 161.15 328.719 160.452C329.922 159.754 330.904 158.726 331.653 157.376C332.396 156.025 332.771 154.442 332.771 152.632C332.771 150.821 332.396 149.244 331.653 147.91L331.647 147.916Z" fill="black"/>
<path d="M351.186 130.522V165.798H345.755V130.522H351.186Z" fill="black"/>
<path d="M364.124 130.522V165.798H358.693V130.522H364.124Z" fill="black"/>
<path d="M395.467 139.534L379.35 178.146H373.726L379.067 165.372L368.721 139.534H374.776L382.165 159.55L389.843 139.534H395.467Z" fill="black"/>
<path d="M394.031 165.134C393.367 164.464 393.032 163.636 393.032 162.648C393.032 161.667 393.367 160.838 394.031 160.169C394.701 159.505 395.529 159.164 396.517 159.164C397.47 159.164 398.282 159.505 398.945 160.169C399.615 160.832 399.95 161.667 399.95 162.648C399.95 163.636 399.615 164.459 398.945 165.134C398.282 165.798 397.47 166.133 396.517 166.133C395.529 166.133 394.706 165.798 394.031 165.134Z" fill="black"/>
<path d="M275.023 24.708H262.998V88.7947H275.023V24.708Z" fill="black"/>
<path d="M186.545 24.708V51.9759H159.59V24.708H147.564V88.7947H159.59V61.5325H186.545V88.7947H198.57V24.708H186.545Z" fill="black"/>
<path d="M313.59 40.6206C307.171 41.1994 301.281 44.4965 297.706 50.5403L297.717 41.4434H285.692L285.629 102.783H297.655L297.677 79.278C301.247 85.3502 307.154 88.6586 313.59 89.2432C324.769 90.2533 336.743 82.0928 336.743 64.9319C336.743 47.771 324.775 39.6105 313.59 40.6206ZM312.398 78.9148C306.422 78.3757 300.997 73.1208 300.997 64.9319C300.997 56.743 306.428 51.488 312.398 50.9489C318.828 50.3644 325.717 55.0632 325.717 64.9319C325.717 74.8005 318.833 79.4994 312.398 78.9148Z" fill="black"/>
<path d="M253.344 69.3864C255.194 52.827 247.335 40.5352 230.792 40.5352C215.152 40.5352 207.957 51.4537 207.957 64.9259C207.957 78.3981 215.152 89.3166 230.792 89.3166C242.182 89.3166 249.088 83.5225 251.999 75.1691H239.657C237.682 77.5582 234.759 79.0337 230.792 79.0337C224.204 79.0337 220.47 74.9875 219.238 69.3807H253.344V69.3864ZM219.21 60.5903C220.419 54.921 224.158 50.8238 230.792 50.8238C237.426 50.8238 241.166 54.9267 242.375 60.5903H219.21Z" fill="black"/>
<path d="M498.58 24.708H486.555V88.7947H498.58V24.708Z" fill="black"/>
<path d="M476.902 69.3864C478.752 52.827 470.892 40.5352 454.349 40.5352C438.709 40.5352 431.514 51.4537 431.514 64.9259C431.514 78.3981 438.709 89.3166 454.349 89.3166C465.739 89.3166 472.645 83.5225 475.557 75.1691H463.214C461.239 77.5582 458.316 79.0337 454.349 79.0337C447.761 79.0337 444.027 74.9875 442.795 69.3807H476.902V69.3864ZM442.767 60.5903C443.976 54.921 447.716 50.8238 454.349 50.8238C460.983 50.8238 464.723 54.9267 465.932 60.5903H442.767Z" fill="black"/>
<path d="M423.79 69.3864C425.64 52.827 417.781 40.5352 401.238 40.5352C385.598 40.5352 378.402 51.4537 378.402 64.9259C378.402 78.3981 385.598 89.3166 401.238 89.3166C412.628 89.3166 419.534 83.5225 422.445 75.1691H410.102C408.127 77.5582 405.205 79.0337 401.238 79.0337C394.65 79.0337 390.915 74.9875 389.684 69.3807H423.79V69.3864ZM389.656 60.5903C390.864 54.921 394.604 50.8238 401.238 50.8238C407.872 50.8238 411.612 54.9267 412.821 60.5903H389.656Z" fill="black"/>
<path d="M372.665 35.2862V24.5776C360.016 22.2679 348.252 28.8679 348.7 45.4443H342.355V54.246H348.7V88.7211H360.714V54.246H372.665V45.4443H360.714C360.311 35.2862 368.114 34.1739 372.665 35.2862Z" fill="black"/>
<path d="M40.7002 59.1151C35.0934 58.9278 23.1988 58.3093 19.391 58.1731C18.5738 58.1447 17.575 57.7985 17.575 56.743C17.575 55.6875 18.5738 55.3413 19.391 55.3129C23.1988 55.1824 35.0934 54.5638 40.7002 54.3709C48.6905 54.1042 49.8312 49.8139 54.1441 48.5428C53.9171 40.9157 53.2872 29.4694 51.5507 20.923C48.7019 6.92301 45.0813 -0.0117188 27.1429 -0.0117188C9.20453 -0.0117188 5.57259 6.93436 2.72379 20.9344C-0.125014 34.9343 -0.000165787 56.7487 -0.000165787 56.7487C-0.000165787 56.7487 -0.125014 78.563 2.72379 92.563C5.57259 106.563 9.19318 113.498 27.1315 113.498C45.0699 113.498 48.6905 106.563 51.5393 92.563C53.2758 84.0166 53.9057 72.5703 54.1327 64.9432C49.8198 63.6777 48.6848 59.3875 40.6889 59.1151H40.7002Z" fill="url(#paint0_radial_1351_503)"/>
<path d="M110.774 20.9347C107.925 6.93473 104.305 0 86.3662 0C68.4279 0 64.8073 6.93473 61.9585 20.9347C60.2163 29.4868 59.5864 40.9444 59.3594 48.5772C63.6212 49.8654 64.7846 54.1159 72.7408 54.3826C78.3476 54.5699 90.2422 55.1884 94.0501 55.3246C94.8672 55.353 95.866 55.6992 95.866 56.7547C95.866 57.8102 94.8672 58.1564 94.0501 58.1848C90.2422 58.3153 78.3476 58.9339 72.7408 59.1268C64.7903 59.3935 63.6212 63.6441 59.3594 64.9323C59.5864 72.5593 60.2163 84.0226 61.9585 92.5747C64.8073 106.575 68.4279 113.509 86.3662 113.509C104.305 113.509 107.925 106.575 110.774 92.5747C113.623 78.5747 113.498 56.7604 113.498 56.7604C113.498 56.7604 113.623 34.9461 110.774 20.9461V20.9347Z" fill="url(#paint1_radial_1351_503)"/>
</g>
<defs>
<radialGradient id="paint0_radial_1351_503" cx="0" cy="0" r="1" gradientUnits="userSpaceOnUse" gradientTransform="translate(53.395 56.9643) scale(68.3202 68.3202)">
<stop stop-color="#FFE721"/>
<stop offset="1" stop-color="#FF882B"/>
</radialGradient>
<radialGradient id="paint1_radial_1351_503" cx="0" cy="0" r="1" gradientUnits="userSpaceOnUse" gradientTransform="translate(60.3865 56.6242) scale(67.6902 67.6903)">
<stop stop-color="#48D2E6"/>
<stop offset="1" stop-color="#4D6BD5"/>
</radialGradient>
<clipPath id="clip0_1351_503">
<rect width="498.58" height="178.147" fill="white"/>
</clipPath>
</defs>
</svg>
