<?xml version="1.0" encoding="UTF-8"?>
<svg viewBox="192 42 350 85" version="1.1" xmlns="http://www.w3.org/2000/svg" xmlns:xlink="http://www.w3.org/1999/xlink">
    <g id="OKTech-Space-Grotesk-Outline" stroke="none" stroke-width="1" fill="currentColor" fill-rule="evenodd">
        <path d="M226.205731,122.458226 C235.37172,122.458226 242.662848,119.941051 248.079114,114.9067 C253.49538,109.87235 256.203513,102.668022 256.203513,93.2937148 L256.203513,93.2937148 L256.203513,75.7950083 C256.203513,66.4207013 253.49538,59.2163727 248.079114,54.1820227 C242.662848,49.1476726 235.37172,46.6304976 226.205731,46.6304976 C217.039742,46.6304976 209.748614,49.1476726 204.332348,54.1820227 C198.916081,59.2163727 196.207948,66.4207013 196.207948,75.7950083 L196.207948,75.7950083 L196.207948,93.2937148 C196.207948,102.668022 198.916081,109.87235 204.332348,114.9067 C209.748614,119.941051 217.039742,122.458226 226.205731,122.458226 Z M226.205731,110.167467 C221.136661,110.167467 217.161261,108.674522 214.279529,105.688632 C211.397798,102.702741 209.956932,98.7099811 209.956932,93.7103506 L209.956932,93.7103506 L209.956932,75.3783725 C209.956932,70.378742 211.397798,66.3859816 214.279529,63.4000912 C217.161261,60.4142009 221.136661,58.9212557 226.205731,58.9212557 C231.34424,58.9212557 235.337,60.4142009 238.184012,63.4000912 C241.031024,66.3859816 242.45453,70.378742 242.45453,75.3783725 L242.45453,75.3783725 L242.45453,93.7103506 C242.45453,98.7099811 241.031024,102.702741 238.184012,105.688632 C235.337,108.674522 231.34424,110.167467 226.205731,110.167467 Z M278.084937,121 L278.084937,91.4188534 L279.959799,91.4188534 L304.124679,121 L322.248339,121 L290.792331,84.0235667 L321.206749,48.0887231 L303.603884,48.0887231 L279.959799,77.0449159 L278.084937,77.0449159 L278.084937,48.0887231 L264.335954,48.0887231 L264.335954,121 L278.084937,121 Z M356.212203,121 L356.212203,60.5877991 L377.460632,60.5877991 L377.460632,48.0887231 L321.21479,48.0887231 L321.21479,60.5877991 L342.46322,60.5877991 L342.46322,121 L356.212203,121 Z M397.050559,122.458226 C401.772432,122.458226 405.661034,121.711753 408.716363,120.218808 C411.771693,118.725863 414.219429,116.92044 416.05957,114.802541 C417.899712,112.684642 419.305858,110.722982 420.278009,108.91756 L420.278009,108.91756 L409.549635,103.292976 C408.646924,105.237276 407.327577,107.007979 405.591594,108.605083 C403.855611,110.202187 401.147478,111.000739 397.467195,111.000739 C393.856351,111.000739 390.801021,109.88971 388.301206,107.667652 C385.801391,105.445594 384.482044,102.563863 384.343165,99.022458 L384.343165,99.022458 L421.944552,99.022458 L421.944552,94.5436224 C421.944552,89.2662347 420.902962,84.6311607 418.819783,80.6384003 C416.736604,76.6456399 413.820153,73.5208709 410.07043,71.2640933 C406.320707,69.0073156 401.911311,67.8789268 396.842241,67.8789268 C391.703732,67.8789268 387.190177,68.972596 383.301575,71.1599343 C379.412974,73.3472726 376.392364,76.437322 374.239745,80.4300824 C372.087127,84.4228428 371.010817,89.1273561 371.010817,94.5436224 L371.010817,94.5436224 L371.010817,95.79353 C371.010817,101.209796 372.104486,105.91431 374.291825,109.90707 C376.479163,113.89983 379.534493,116.98988 383.457814,119.177218 C387.381135,121.364556 391.91205,122.458226 397.050559,122.458226 Z M408.612204,89.2315151 L384.447324,89.2315151 C384.933399,86.2456247 386.218026,83.8499684 388.301206,82.0445463 C390.384385,80.2391242 393.196677,79.3364132 396.738082,79.3364132 C400.140608,79.3364132 402.900821,80.2391242 405.01872,82.0445463 C407.136619,83.8499684 408.334447,86.2456247 408.612204,89.2315151 L408.612204,89.2315151 Z M453.929396,122.458226 C458.859587,122.458226 463.095385,121.590234 466.63679,119.854251 C470.178195,118.118269 473.042566,115.739972 475.229904,112.719362 C477.417243,109.698752 478.962267,106.348305 479.864978,102.668022 L479.864978,102.668022 L467.157585,99.6474118 C466.60207,102.980499 465.300083,105.671272 463.251623,107.719732 C461.203164,109.768191 458.199913,110.792421 454.241873,110.792421 C451.603179,110.792421 449.224882,110.219547 447.106983,109.073798 C444.989084,107.92805 443.322541,106.226787 442.107353,103.970009 C440.892165,101.713231 440.284571,98.9530187 440.284571,95.689371 L440.284571,95.689371 L440.284571,94.6477813 C440.284571,91.3841337 440.892165,88.6239211 442.107353,86.3671435 C443.322541,84.1103659 444.989084,82.4091027 447.106983,81.2633541 C449.224882,80.1176055 451.603179,79.5447311 454.241873,79.5447311 C456.880566,79.5447311 459.085265,80.0308063 460.855967,81.0029567 C462.626669,81.975107 463.998096,83.2944539 464.970246,84.9609974 C465.942397,86.6275409 466.56735,88.5024023 466.845108,90.5855816 L466.845108,90.5855816 L479.552502,87.8774485 C478.858108,84.0582864 477.417243,80.6384003 475.229904,77.6177902 C473.042566,74.5971802 470.178195,72.2188838 466.63679,70.482901 C463.095385,68.7469182 458.859587,67.8789268 453.929396,67.8789268 C448.929765,67.8789268 444.39885,68.9205165 440.33665,71.0036958 C436.274451,73.0868752 433.062883,76.1074852 430.701946,80.065526 C428.341009,84.0235667 427.160541,88.8148792 427.160541,94.4394634 L427.160541,94.4394634 L427.160541,95.897689 C427.160541,101.522273 428.341009,106.313586 430.701946,110.271626 C433.062883,114.229667 436.274451,117.250277 440.33665,119.333457 C444.39885,121.416636 448.929765,122.458226 453.929396,122.458226 Z M499.871541,121 L499.871541,94.7519403 C499.871541,89.9606278 500.98257,86.2282648 503.204628,83.5548514 C505.426686,80.8814379 508.551455,79.5447311 512.578935,79.5447311 C516.12034,79.5447311 518.845833,80.5168815 520.755414,82.4611822 C522.664995,84.4054829 523.619785,87.321934 523.619785,91.2105354 L523.619785,91.2105354 L523.619785,121 L536.743815,121 L536.743815,90.1689458 C536.743815,85.8637085 535.910543,82.0966258 534.244,78.8676978 C532.577457,75.6387699 530.23388,73.104235 527.21327,71.2640933 C524.19266,69.4239515 520.668615,68.5038806 516.641135,68.5038806 C513.585805,68.5038806 511.06863,68.868437 509.089609,69.5975498 C507.110589,70.3266626 505.530845,71.2467334 504.350376,72.3577624 C503.169908,73.4687914 502.301917,74.5798204 501.746402,75.6908494 L501.746402,75.6908494 L499.871541,75.6908494 L499.871541,48.0887231 L486.747511,48.0887231 L486.747511,121 L499.871541,121 Z" id="OKTech" fill-rule="nonzero"></path>
    </g>
</svg>
